<svg xmlns="http://www.w3.org/2000/svg" width="16.25" height="20" viewBox="0 0 16.25 20">
  <g id="delete" transform="translate(-48)">
    <path id="Path_1" data-name="Path 1" d="M62.688,2.5H59.25V1.875A1.877,1.877,0,0,0,57.375,0h-2.5A1.877,1.877,0,0,0,53,1.875V2.5H49.563A1.564,1.564,0,0,0,48,4.063V6.25a.625.625,0,0,0,.625.625h.342l.54,11.339A1.873,1.873,0,0,0,51.379,20h9.491a1.873,1.873,0,0,0,1.873-1.786l.54-11.339h.342a.625.625,0,0,0,.625-.625V4.063A1.564,1.564,0,0,0,62.688,2.5ZM54.25,1.875a.626.626,0,0,1,.625-.625h2.5A.626.626,0,0,1,58,1.875V2.5H54.25Zm-5,2.188a.313.313,0,0,1,.313-.312H62.688A.313.313,0,0,1,63,4.063V5.625H49.25ZM61.495,18.155a.624.624,0,0,1-.624.6H51.379a.624.624,0,0,1-.624-.6l-.537-11.28H62.032Z" fill="#f33"/>
    <path id="Path_2" data-name="Path 2" d="M241,218.736c.552,0,1-.32,1-.716v-9.3c0-.4-.447-.716-1-.716s-1,.32-1,.716v9.3C240,218.415,240.447,218.736,241,218.736Z" transform="translate(-184.874 -200.557)" fill="#f33"/>
    <path id="Path_3" data-name="Path 3" d="M321,218.736c.552,0,1-.32,1-.716v-9.3c0-.4-.447-.716-1-.716s-1,.32-1,.716v9.3C320,218.415,320.447,218.736,321,218.736Z" transform="translate(-261.904 -200.557)" fill="#f33"/>
    <path id="Path_4" data-name="Path 4" d="M161,218.736c.552,0,1-.32,1-.716v-9.3c0-.4-.447-.716-1-.716s-1,.32-1,.716v9.3C160,218.415,160.447,218.736,161,218.736Z" transform="translate(-107.843 -200.557)" fill="#f33"/>
  </g>
</svg>
